<svg width="56" height="57" viewBox="0 0 56 57" fill="none" xmlns="http://www.w3.org/2000/svg">
<path d="M32.0311 8.83606L36.1373 17.1164C36.6973 18.269 38.1904 19.3746 39.4505 19.5863L46.8929 20.8331C51.6524 21.6329 52.7724 25.1144 49.3426 28.5488L43.5567 34.3826C42.5767 35.3705 42.0402 37.2759 42.3433 38.6405L44 45.8621C45.3064 51.5783 42.2966 53.7896 37.2807 50.802L30.3047 46.6384C29.0449 45.8857 26.9685 45.8857 25.6852 46.6384L18.7094 50.802C13.7166 53.7896 10.6836 51.5548 11.9901 45.8621L13.6466 38.6405C13.9499 37.2759 13.4133 35.3705 12.4334 34.3826L6.64737 28.5488C3.24108 25.1144 4.33763 21.6329 9.09709 20.8331L16.5396 19.5863C17.7761 19.3746 19.2693 18.269 19.8292 17.1164L23.9354 8.83606C26.1752 4.34306 29.8147 4.34306 32.0311 8.83606Z" fill="#3032B6" stroke="#3032B6" stroke-width="3" stroke-linecap="round" stroke-linejoin="round"/>
</svg>
