<svg width="56" height="56" viewBox="0 0 56 56" fill="none" xmlns="http://www.w3.org/2000/svg">
<path d="M21.0852 25.3552L23.549 30.3234C23.8848 31.015 24.7808 31.6783 25.5368 31.8055L30.0023 32.5536C32.8578 33.0333 33.5298 35.1223 31.4721 37.1829L28.0005 40.6831C27.4125 41.276 27.0905 42.4191 27.2725 43.2379L28.2663 47.5709C29.0503 51.0007 27.2445 52.3274 24.2348 50.5349L20.0493 48.0366C19.2934 47.5849 18.0475 47.5849 17.2776 48.0366L13.0921 50.5349C10.0964 52.3274 8.27662 50.9864 9.06052 47.5709L10.0544 43.2379C10.2364 42.4191 9.91443 41.276 9.3265 40.6831L5.85487 37.1829C3.81111 35.1223 4.46904 33.0333 7.32471 32.5536L11.7902 31.8055C12.5321 31.6783 13.428 31.015 13.764 30.3234L16.2277 25.3552C17.5716 22.6594 19.7554 22.6594 21.0852 25.3552Z" fill="#3032B6" stroke="#3032B6" stroke-width="3" stroke-linecap="round" stroke-linejoin="round"/>
<path d="M51.3332 4.66663L32.6665 23.3333M37.3332 4.66663L25.6665 16.3333M46.6665 23.3333L39.6665 30.3333" stroke="black" stroke-width="1.5" stroke-linecap="round"/>
</svg>
