<svg width="56" height="56" viewBox="0 0 56 56" fill="none" xmlns="http://www.w3.org/2000/svg">
<path d="M42 18.1123L40.5893 33.9718C40.1504 38.9048 39.931 41.371 38.6022 42.8568C37.2731 44.3423 35.2865 44.3423 31.3129 44.3423H24.6871C20.7135 44.3423 18.7268 44.3423 17.3979 42.8568C16.069 41.371 15.8496 38.9048 15.4108 33.9718L14 18.1123" fill="#3032B6"/>
<path d="M42 18.1123L40.5893 33.9718C40.1504 38.9048 39.931 41.371 38.6022 42.8568C37.2731 44.3423 35.2865 44.3423 31.3129 44.3423H24.6871C20.7135 44.3423 18.7268 44.3423 17.3979 42.8568C16.069 41.371 15.8496 38.9048 15.4108 33.9718L14 18.1123" stroke="#171717" stroke-width="1.2" stroke-linecap="round" stroke-linejoin="round"/>
<path d="M31.5098 6.16309L30.922 6.64761C29.5209 7.80237 28.8204 8.37976 28 8.37976C27.1796 8.37976 26.4791 7.80237 25.078 6.64761L24.4902 6.16309C23.355 5.22752 22.7875 4.75971 22.1072 4.68546C21.4268 4.61119 20.7767 4.94609 19.4765 5.61588L18.7687 5.98048C18.122 6.31361 17.7986 6.48019 17.6232 6.81922C17.4478 7.15823 17.4882 7.48266 17.5691 8.13149C18.2149 13.3154 22.1465 18.2023 27.0912 19.6702C27.4769 19.7847 27.6698 19.842 28 19.842C28.3302 19.842 28.5231 19.7847 28.9088 19.6702C33.8534 18.2023 37.7851 13.3154 38.4309 8.13149C38.5117 7.48266 38.5523 7.15823 38.3768 6.81922C38.2013 6.48019 37.8779 6.31361 37.2314 5.98048L36.5234 5.61588C35.2233 4.94609 34.5732 4.61119 33.8928 4.68546C33.2124 4.75971 32.645 5.22752 31.5098 6.16309Z" fill="#3032B6" stroke="#171717" stroke-width="1.2" stroke-linecap="round" stroke-linejoin="round"/>
<path d="M17.4496 9.34229C12.5807 10.2913 9.32353 12.0257 6.34431 14.5455C5.47379 15.2817 5.03853 15.6499 4.83331 16.2351C4.15763 18.1619 5.635 24.7925 7.45927 25.5564C8.59532 26.0322 10.1856 25.0568 13.3663 23.1063C16.2526 21.3362 19.7929 19.5029 23.3332 18.5171" fill="#3032B6"/>
<path d="M17.4496 9.34229C12.5807 10.2913 9.32353 12.0257 6.34431 14.5455C5.47379 15.2817 5.03853 15.6499 4.83331 16.2351C4.15763 18.1619 5.635 24.7925 7.45927 25.5564C8.59532 26.0322 10.1856 25.0568 13.3663 23.1063C16.2526 21.3362 19.7929 19.5029 23.3332 18.5171" stroke="#171717" stroke-width="1.2" stroke-linecap="round" stroke-linejoin="round"/>
<path d="M38.55 9.34229C43.419 10.2913 46.6761 12.0257 49.6553 14.5455C50.5258 15.2817 50.9612 15.6499 51.1663 16.2351C51.8421 18.1619 50.3646 24.7925 48.5404 25.5564C47.4043 26.0322 45.8141 25.0568 42.6333 23.1063C39.747 21.3362 36.2069 19.5029 32.6665 18.5171" fill="#3032B6"/>
<path d="M38.55 9.34229C43.419 10.2913 46.6761 12.0257 49.6553 14.5455C50.5258 15.2817 50.9612 15.6499 51.1663 16.2351C51.8421 18.1619 50.3646 24.7925 48.5404 25.5564C47.4043 26.0322 45.8141 25.0568 42.6333 23.1063C39.747 21.3362 36.2069 19.5029 32.6665 18.5171" stroke="#171717" stroke-width="1.2" stroke-linecap="round" stroke-linejoin="round"/>
<path d="M35.8986 44.3423H20.1014C19.5077 44.3423 19.2109 44.3423 18.9289 44.3752C17.9116 44.4939 16.9603 44.9296 16.2157 45.6174C16.0093 45.8081 15.8193 46.0312 15.4392 46.4771C14.6913 47.3542 14.3175 47.7928 14.1778 48.1274C13.6513 49.3888 14.3375 50.8208 15.6658 51.2331C16.0181 51.3423 16.6022 51.3423 17.7703 51.3423H38.2298C39.3979 51.3423 39.9819 51.3423 40.3342 51.2331C41.6626 50.8208 42.3488 49.3888 41.8222 48.1274C41.6827 47.7928 41.3086 47.3542 40.5608 46.4771C40.1807 46.0312 39.9908 45.8081 39.7843 45.6174C39.0397 44.9296 38.0884 44.4939 37.0711 44.3752C36.7892 44.3423 36.4924 44.3423 35.8986 44.3423Z" fill="#3032B6" stroke="#171717" stroke-width="1.2" stroke-linecap="round" stroke-linejoin="round"/>
</svg>
