<svg width="42" height="50" viewBox="0 0 42 50" fill="none" xmlns="http://www.w3.org/2000/svg">
<path d="M19.1969 34.8245V44.6491C19.1969 46.6838 17.5822 48.3333 15.5908 48.3333C13.5992 48.3333 11.9847 46.6838 11.9847 44.6491V20.1805L8.08941 24.1726C6.38031 25.9242 3.56505 25.7644 2.05515 23.83C0.899828 22.35 0.867931 20.2563 1.97757 18.7399L9.19931 8.87128C10.8382 6.63174 11.6577 5.51197 12.6438 4.64164C14.1484 3.31374 15.9512 2.38974 17.8904 1.95294C19.1614 1.66664 20.5273 1.66664 23.2587 1.66664C28.4672 1.66664 31.0714 1.66664 33.1448 2.48238C36.3151 3.72954 38.8202 6.29715 40.0373 9.54631C40.8332 11.6713 40.8332 14.3404 40.8332 19.6783V25.7508C40.8332 28.1523 39.134 30.2016 36.8156 30.5964L35.9924 30.7365C34.7511 30.9479 33.6211 29.9699 33.6211 28.6841M19.1969 34.8245L20.5857 35.534C21.2532 35.8751 21.9999 36.0952 22.7258 35.9174C24.8386 35.4 26.409 33.4575 26.409 31.1403M19.1969 34.8245V28.6841V34.8245ZM26.409 31.1403V28.6841V31.1403ZM26.409 31.1403C26.409 32.4968 27.4853 33.5965 28.813 33.5965C31.4683 33.5965 33.6211 31.3972 33.6211 28.6841M33.6211 28.6841V26.228V28.6841Z" fill="#3032B6"/>
<path d="M19.1969 34.8245V44.6491C19.1969 46.6838 17.5822 48.3333 15.5908 48.3333C13.5992 48.3333 11.9847 46.6838 11.9847 44.6491V20.1805L8.08941 24.1726C6.38031 25.9242 3.56505 25.7644 2.05515 23.83C0.899828 22.35 0.867931 20.2563 1.97757 18.7399L9.19931 8.87128C10.8382 6.63174 11.6577 5.51198 12.6438 4.64164C14.1484 3.31374 15.9512 2.38974 17.8904 1.95294C19.1614 1.66664 20.5273 1.66664 23.2587 1.66664C28.4672 1.66664 31.0714 1.66664 33.1448 2.48238C36.3151 3.72954 38.8202 6.29715 40.0373 9.54631C40.8332 11.6713 40.8332 14.3404 40.8332 19.6783V25.7508C40.8332 28.1523 39.134 30.2016 36.8156 30.5964L35.9924 30.7365C34.7511 30.9479 33.6211 29.9699 33.6211 28.6841M19.1969 34.8245L20.5857 35.534C21.2532 35.8751 21.9999 36.0952 22.7258 35.9174C24.8386 35.4 26.409 33.4575 26.409 31.1403M19.1969 34.8245V28.6841M33.6211 28.6841C33.6211 31.3972 31.4683 33.5965 28.813 33.5965C27.4853 33.5965 26.409 32.4968 26.409 31.1403M33.6211 28.6841V26.228M26.409 31.1403V28.6841" stroke="#171717" stroke-width="1.5" stroke-linecap="round" stroke-linejoin="round"/>
</svg>
