<svg width="40" height="40" viewBox="0 0 40 40" fill="none" xmlns="http://www.w3.org/2000/svg">
<path d="M15.0609 18.1108L16.8208 21.6595C17.0606 22.1535 17.7006 22.6273 18.2406 22.7182L21.4303 23.2525C23.47 23.5952 23.95 25.0873 22.4801 26.5592L20.0005 29.0593C19.5805 29.4828 19.3505 30.2993 19.4805 30.8842L20.1903 33.9792C20.7503 36.429 19.4605 37.3767 17.3106 36.0963L14.321 34.3118C13.7811 33.9892 12.8912 33.9892 12.3412 34.3118L9.35158 36.0963C7.21181 37.3767 5.91196 36.4188 6.4719 33.9792L7.18181 30.8842C7.31181 30.2993 7.08183 29.4828 6.66188 29.0593L4.18215 26.5592C2.72231 25.0873 3.19226 23.5952 5.23203 23.2525L8.42168 22.7182C8.95163 22.6273 9.59155 22.1535 9.83153 21.6595L11.5913 18.1108C12.5512 16.1853 14.1111 16.1853 15.0609 18.1108Z" fill="#00939E" stroke="#00939E" stroke-width="3" stroke-linecap="round" stroke-linejoin="round"/>
<path d="M36.6666 3.33334L23.3333 16.6667M26.6666 3.33334L18.3333 11.6667M33.3333 16.6667L28.3333 21.6667" stroke="black" stroke-width="1.5" stroke-linecap="round"/>
</svg>
