<svg width="48" height="48" viewBox="0 0 48 48" fill="none" xmlns="http://www.w3.org/2000/svg">
<path d="M44 24C44 12.9543 35.0456 4 24 4C12.9543 4 4 12.9543 4 24C4 35.0456 12.9543 44 24 44C35.0456 44 44 35.0456 44 24Z" fill="#00939E"/>
<path d="M24.8028 16.5959L30.6426 14.6493C32.415 14.0585 33.3014 13.7631 33.7692 14.2309C34.237 14.6987 33.9416 15.5849 33.3506 17.3574L31.404 23.1972C30.3972 26.2176 29.8938 27.7278 28.8108 28.8108C27.7278 29.8938 26.2176 30.3972 23.1972 31.404L17.3574 33.3506C15.5849 33.9416 14.6987 34.237 14.2309 33.7692C13.7631 33.3014 14.0585 32.415 14.6493 30.6426L16.5959 24.8028C17.6027 21.7824 18.1061 20.2722 19.1891 19.1891C20.2722 18.1061 21.7824 17.6027 24.8028 16.5959Z" fill="#00727A" stroke="white" stroke-width="1.5" stroke-linecap="round" stroke-linejoin="round"/>
<path d="M24.0001 24L23.9873 24.0128" stroke="white" stroke-width="2" stroke-linecap="round" stroke-linejoin="round"/>
</svg>
