<svg width="56" height="56" viewBox="0 0 56 56" fill="none" xmlns="http://www.w3.org/2000/svg">
<path d="M51.3337 28C51.3337 15.1134 40.8869 4.66669 28.0003 4.66669C15.1137 4.66669 4.66699 15.1134 4.66699 28C4.66699 40.8866 15.1137 51.3334 28.0003 51.3334C40.8869 51.3334 51.3337 40.8866 51.3337 28Z" fill="#3032B6" stroke="#171717" stroke-width="1.5"/>
<path d="M28.9363 19.3619L35.7494 17.0908C37.8172 16.4015 38.8513 16.0569 39.3971 16.6027C39.9428 17.1485 39.5982 18.1824 38.9087 20.2503L36.6377 27.0634C35.4631 30.5872 34.8758 32.3491 33.6123 33.6126C32.3488 34.8761 30.5869 35.4634 27.0631 36.638L20.25 38.909C18.1821 39.5985 17.1482 39.9431 16.6024 39.3974C16.0566 38.8516 16.4012 37.8175 17.0905 35.7497L19.3616 28.9366C20.5362 25.4128 21.1235 23.6509 22.387 22.3873C23.6506 21.1238 25.4125 20.5365 28.9363 19.3619Z" fill="#3032B6" stroke="white" stroke-width="1.5" stroke-linecap="round" stroke-linejoin="round"/>
<path d="M28.0003 28L27.9854 28.0149" stroke="white" stroke-width="2" stroke-linecap="round" stroke-linejoin="round"/>
</svg>
