<svg width="56" height="56" viewBox="0 0 56 56" fill="none" xmlns="http://www.w3.org/2000/svg">
<path d="M14.2085 34.9981C13.3256 33.0134 12.8333 30.8054 12.8333 28.4786C12.8333 19.8369 19.6237 12.8315 28 12.8315C36.3764 12.8315 43.1666 19.8369 43.1666 28.4786C43.1666 30.8054 42.6743 33.0134 41.7914 34.9981" fill="#00939E"/>
<path d="M14.2085 34.9981C13.3256 33.0134 12.8333 30.8054 12.8333 28.4786C12.8333 19.8369 19.6237 12.8315 28 12.8315C36.3764 12.8315 43.1666 19.8369 43.1666 28.4786C43.1666 30.8054 42.6743 33.0134 41.7914 34.9981" stroke="#00939E" stroke-width="3" stroke-linecap="round"/>
<path d="M28 4.66483V6.99816" stroke="#00939E" stroke-width="3" stroke-linecap="round" stroke-linejoin="round"/>
<path d="M51.3333 27.9981H49" stroke="#00939E" stroke-width="3" stroke-linecap="round" stroke-linejoin="round"/>
<path d="M7.00002 27.9981H4.66669" stroke="#00939E" stroke-width="3" stroke-linecap="round" stroke-linejoin="round"/>
<path d="M44.4976 11.4985L42.8477 13.1484" stroke="#00939E" stroke-width="3" stroke-linecap="round" stroke-linejoin="round"/>
<path d="M13.1525 13.1507L11.5026 11.5007" stroke="#00939E" stroke-width="3" stroke-linecap="round" stroke-linejoin="round"/>
<path d="M33.873 45.0464C36.2306 44.2839 37.1761 42.126 37.4421 39.9555C37.5214 39.3071 36.988 38.7693 36.3347 38.7693L19.7793 38.7697C19.1036 38.7697 18.5609 39.3433 18.6416 40.0141C18.9021 42.1804 19.5596 43.7628 22.058 45.0464M33.873 45.0464C33.873 45.0464 22.4693 45.0464 22.058 45.0464H33.873ZM33.873 45.0464C33.5895 49.5847 32.2789 51.3821 28.0159 51.3317C23.4561 51.4159 22.4071 49.1944 22.058 45.0464" fill="#00939E"/>
<path d="M33.873 45.0464C36.2306 44.2839 37.1761 42.126 37.4421 39.9555C37.5214 39.3071 36.988 38.7693 36.3347 38.7693L19.7793 38.7697C19.1036 38.7697 18.5609 39.3433 18.6416 40.0141C18.9021 42.1804 19.5596 43.7628 22.058 45.0464M33.873 45.0464C33.873 45.0464 22.4693 45.0464 22.058 45.0464M33.873 45.0464C33.5895 49.5847 32.2789 51.3821 28.0159 51.3317C23.4561 51.4159 22.4071 49.1944 22.058 45.0464" stroke="#00939E" stroke-linecap="round" stroke-linejoin="round"/>
</svg>
