<svg width="56" height="56" viewBox="0 0 56 56" fill="none" xmlns="http://www.w3.org/2000/svg">
<path d="M14.2087 35.007C13.3258 33.0222 12.8335 30.8142 12.8335 28.4874C12.8335 19.8458 19.6238 12.8403 28.0002 12.8403C36.3766 12.8403 43.1668 19.8458 43.1668 28.4874C43.1668 30.8142 42.6745 33.0222 41.7916 35.007" fill="#3032B6"/>
<path d="M14.2087 35.007C13.3258 33.0222 12.8335 30.8142 12.8335 28.4874C12.8335 19.8458 19.6238 12.8403 28.0002 12.8403C36.3766 12.8403 43.1668 19.8458 43.1668 28.4874C43.1668 30.8142 42.6745 33.0222 41.7916 35.007" stroke="black" stroke-width="3" stroke-linecap="round"/>
<path d="M28 4.67358V7.00692" stroke="black" stroke-width="3" stroke-linecap="round" stroke-linejoin="round"/>
<path d="M51.3333 28.0068H49" stroke="black" stroke-width="3" stroke-linecap="round" stroke-linejoin="round"/>
<path d="M6.99984 28.0068H4.6665" stroke="black" stroke-width="3" stroke-linecap="round" stroke-linejoin="round"/>
<path d="M44.4976 11.5073L42.8477 13.1572" stroke="black" stroke-width="3" stroke-linecap="round" stroke-linejoin="round"/>
<path d="M13.1524 13.1594L11.5024 11.5095" stroke="black" stroke-width="3" stroke-linecap="round" stroke-linejoin="round"/>
<path d="M33.8732 45.0552C36.2308 44.2927 37.1762 42.1348 37.4422 39.9643C37.5216 39.3159 36.9882 38.7781 36.3348 38.7781L19.7795 38.7785C19.1038 38.7785 18.5611 39.3521 18.6418 40.0229C18.9023 42.1892 19.5598 43.7716 22.0582 45.0552M33.8732 45.0552C33.8732 45.0552 22.4695 45.0552 22.0582 45.0552H33.8732ZM33.8732 45.0552C33.5897 49.5935 32.279 51.3909 28.016 51.3405C23.4562 51.4247 22.4072 49.2032 22.0582 45.0552" fill="#3032B6"/>
<path d="M33.8732 45.0552C36.2308 44.2927 37.1762 42.1348 37.4422 39.9643C37.5216 39.3159 36.9882 38.7781 36.3348 38.7781L19.7795 38.7785C19.1038 38.7785 18.5611 39.3521 18.6418 40.0229C18.9023 42.1892 19.5598 43.7716 22.0582 45.0552M33.8732 45.0552C33.8732 45.0552 22.4695 45.0552 22.0582 45.0552M33.8732 45.0552C33.5897 49.5935 32.279 51.3909 28.016 51.3405C23.4562 51.4247 22.4072 49.2032 22.0582 45.0552" stroke="black" stroke-linecap="round" stroke-linejoin="round"/>
</svg>
