<svg width="61" height="61" viewBox="0 0 61 61" fill="none" xmlns="http://www.w3.org/2000/svg">
<g clip-path="url(#clip0_206_1034)">
<g filter="url(#filter0_d_206_1034)">
<path d="M34.1238 53.9175C33.0398 54.9325 31.5906 55.5 30.0823 55.5C28.5741 55.5 27.1251 54.9325 26.0408 53.9175C16.1121 44.565 2.80649 34.1173 9.29527 18.9492C12.8037 10.7479 21.2254 5.5 30.0823 5.5C38.9393 5.5 47.3611 10.7479 50.8696 18.9492C57.3501 34.0982 44.0771 44.5973 34.1238 53.9175Z" fill="#3032B6"/>
<path d="M34.1238 53.9175C33.0398 54.9325 31.5906 55.5 30.0823 55.5C28.5741 55.5 27.1251 54.9325 26.0408 53.9175C16.1121 44.565 2.80649 34.1173 9.29527 18.9492C12.8037 10.7479 21.2254 5.5 30.0823 5.5C38.9393 5.5 47.3611 10.7479 50.8696 18.9492C57.3501 34.0982 44.0771 44.5973 34.1238 53.9175Z" stroke="#3032B6" stroke-width="3" stroke-linejoin="round"/>
</g>
<path d="M38.8296 28C38.8296 32.8325 34.9121 36.75 30.0796 36.75C25.2471 36.75 21.3296 32.8325 21.3296 28C21.3296 23.1675 25.2471 19.25 30.0796 19.25C34.9121 19.25 38.8296 23.1675 38.8296 28Z" stroke="white" stroke-width="2.5"/>
</g>
<defs>
<filter id="filter0_d_206_1034" x="-17.9211" y="-16" width="96.0061" height="101" filterUnits="userSpaceOnUse" color-interpolation-filters="sRGB">
<feFlood flood-opacity="0" result="BackgroundImageFix"/>
<feColorMatrix in="SourceAlpha" type="matrix" values="0 0 0 0 0 0 0 0 0 0 0 0 0 0 0 0 0 0 127 0" result="hardAlpha"/>
<feOffset dy="4"/>
<feGaussianBlur stdDeviation="12"/>
<feComposite in2="hardAlpha" operator="out"/>
<feColorMatrix type="matrix" values="0 0 0 0 0 0 0 0 0 0 0 0 0 0 0 0 0 0 0.08 0"/>
<feBlend mode="normal" in2="BackgroundImageFix" result="effect1_dropShadow_206_1034"/>
<feBlend mode="normal" in="SourceGraphic" in2="effect1_dropShadow_206_1034" result="shape"/>
</filter>
<clipPath id="clip0_206_1034">
<rect width="60" height="60" fill="white" transform="translate(0.0795898 0.5)"/>
</clipPath>
</defs>
</svg>
