<svg width="40" height="41" viewBox="0 0 40 41" fill="none" xmlns="http://www.w3.org/2000/svg">
<g clip-path="url(#clip0_589_1606)">
<g filter="url(#filter0_d_589_1606)">
<path d="M22.6962 35.8119C21.9735 36.4886 21.0073 36.8669 20.0018 36.8669C18.9963 36.8669 18.0303 36.4886 17.3075 35.8119C10.6884 29.5769 1.81793 22.6117 6.14378 12.4997C8.48272 7.03217 14.0972 3.53357 20.0018 3.53357C25.9065 3.53357 31.521 7.03217 33.86 12.4997C38.1803 22.5991 29.3317 29.5984 22.6962 35.8119Z" fill="#00939E"/>
<path d="M22.6962 35.8119C21.9735 36.4886 21.0073 36.8669 20.0018 36.8669C18.9963 36.8669 18.0303 36.4886 17.3075 35.8119C10.6884 29.5769 1.81793 22.6117 6.14378 12.4997C8.48272 7.03217 14.0972 3.53357 20.0018 3.53357C25.9065 3.53357 31.521 7.03217 33.86 12.4997C38.1803 22.5991 29.3317 29.5984 22.6962 35.8119Z" stroke="#00939E" stroke-width="3" stroke-linejoin="round"/>
</g>
<path d="M25.8333 18.5335C25.8333 21.7552 23.2217 24.3669 20 24.3669C16.7783 24.3669 14.1667 21.7552 14.1667 18.5335C14.1667 15.3119 16.7783 12.7002 20 12.7002C23.2217 12.7002 25.8333 15.3119 25.8333 18.5335Z" stroke="white" stroke-width="2.5"/>
</g>
<defs>
<filter id="filter0_d_589_1606" x="-20.5009" y="-17.9664" width="81.0048" height="84.3334" filterUnits="userSpaceOnUse" color-interpolation-filters="sRGB">
<feFlood flood-opacity="0" result="BackgroundImageFix"/>
<feColorMatrix in="SourceAlpha" type="matrix" values="0 0 0 0 0 0 0 0 0 0 0 0 0 0 0 0 0 0 127 0" result="hardAlpha"/>
<feOffset dy="4"/>
<feGaussianBlur stdDeviation="12"/>
<feComposite in2="hardAlpha" operator="out"/>
<feColorMatrix type="matrix" values="0 0 0 0 0 0 0 0 0 0 0 0 0 0 0 0 0 0 0.08 0"/>
<feBlend mode="normal" in2="BackgroundImageFix" result="effect1_dropShadow_589_1606"/>
<feBlend mode="normal" in="SourceGraphic" in2="effect1_dropShadow_589_1606" result="shape"/>
</filter>
<clipPath id="clip0_589_1606">
<rect width="40" height="40" fill="white" transform="translate(0 0.200195)"/>
</clipPath>
</defs>
</svg>
