<svg width="40" height="40" viewBox="0 0 40 40" fill="none" xmlns="http://www.w3.org/2000/svg">
<path d="M6.41796 14.3667C6.1747 13.2709 6.21205 12.1314 6.52656 11.0539C6.84107 9.97639 7.42254 8.99574 8.21708 8.20287C9.01161 7.41 9.99348 6.83057 11.0716 6.51832C12.1498 6.20607 13.2894 6.17111 14.3846 6.41667C14.9875 5.47383 15.818 4.69793 16.7995 4.16048C17.7811 3.62302 18.8822 3.34131 20.0013 3.34131C21.1204 3.34131 22.2215 3.62302 23.203 4.16048C24.1846 4.69793 25.0151 5.47383 25.618 6.41667C26.7149 6.17004 27.8564 6.20485 28.9363 6.51786C30.0162 6.83086 30.9994 7.4119 31.7944 8.20692C32.5894 9.00194 33.1704 9.98512 33.4834 11.065C33.7964 12.1449 33.8313 13.2864 33.5846 14.3833C34.5275 14.9862 35.3034 15.8167 35.8408 16.7982C36.3783 17.7798 36.66 18.8809 36.66 20C36.66 21.1191 36.3783 22.2202 35.8408 23.2017C35.3034 24.1833 34.5275 25.0138 33.5846 25.6167C33.8302 26.7119 33.7952 27.8515 33.483 28.9297C33.1707 30.0078 32.5913 30.9897 31.7984 31.7842C31.0056 32.5788 30.0249 33.1602 28.9474 33.4747C27.8699 33.7892 26.7304 33.8266 25.6346 33.5833C25.0326 34.5298 24.2014 35.309 23.2182 35.8489C22.2349 36.3887 21.1313 36.6718 20.0096 36.6718C18.8879 36.6718 17.7843 36.3887 16.8011 35.8489C15.8178 35.309 14.9867 34.5298 14.3846 33.5833C13.2894 33.8289 12.1498 33.7939 11.0716 33.4817C9.99348 33.1694 9.01161 32.59 8.21708 31.7971C7.42254 31.0043 6.84107 30.0236 6.52656 28.9461C6.21205 27.8686 6.1747 26.7291 6.41796 25.6333C5.46789 25.0321 4.68532 24.2003 4.14305 23.2154C3.60077 22.2304 3.31641 21.1243 3.31641 20C3.31641 18.8757 3.60077 17.7696 4.14305 16.7846C4.68532 15.7997 5.46789 14.9679 6.41796 14.3667Z" fill="#3032B6" stroke="#3032B6" stroke-width="1.25" stroke-linecap="round" stroke-linejoin="round"/>
<path d="M25 15L15 25" stroke="white" stroke-width="1.25" stroke-linecap="round" stroke-linejoin="round"/>
<path d="M15 15H15.0167" stroke="white" stroke-width="1.25" stroke-linecap="round" stroke-linejoin="round"/>
<path d="M25 25H25.0167" stroke="white" stroke-width="1.25" stroke-linecap="round" stroke-linejoin="round"/>
</svg>
