<svg width="33" height="33" viewBox="0 0 33 33" fill="none" xmlns="http://www.w3.org/2000/svg">
<path d="M19.2173 2.40785L22.033 8.08577C22.417 8.87616 23.4408 9.63428 24.3048 9.77945L29.4081 10.6344C32.6718 11.1828 33.4398 13.5701 31.088 15.9252L27.1205 19.9255C26.4485 20.6029 26.0806 21.9095 26.2885 22.8452L27.4245 27.7972C28.3203 31.7168 26.2565 33.2332 22.8169 31.1845L18.0334 28.3295C17.1696 27.8133 15.7458 27.8133 14.8658 28.3295L10.0823 31.1845C6.65872 33.2332 4.57896 31.7007 5.47486 27.7972L6.61074 22.8452C6.8187 21.9095 6.45075 20.6029 5.77882 19.9255L1.81127 15.9252C-0.524476 13.5701 0.227444 11.1828 3.49107 10.6344L8.59451 9.77945C9.44242 9.63428 10.4663 8.87616 10.8503 8.08577L13.6659 2.40785C15.2018 -0.67306 17.6974 -0.67306 19.2173 2.40785Z" fill="#00939E"/>
</svg>
