<svg width="36" height="36" viewBox="0 0 36 36" fill="none" xmlns="http://www.w3.org/2000/svg">
<g clip-path="url(#clip0_627_1153)">
<g filter="url(#filter0_d_627_1153)">
<path d="M3.52708 19.8202C2.99755 16.3743 2.73279 14.6514 3.38426 13.1241C4.03571 11.5967 5.48105 10.5516 8.37171 8.46159L10.5315 6.9C14.1274 4.3 15.9254 3 18 3C20.0746 3 21.8726 4.3 25.4685 6.9L27.6283 8.46159C30.519 10.5516 31.9642 11.5967 32.6157 13.1241C33.2671 14.6514 33.0024 16.3743 32.4729 19.8202L32.0214 22.7586C31.2707 27.6433 30.8954 30.0858 29.1435 31.5429C27.3917 33 24.8305 33 19.7082 33H16.2918C11.1695 33 8.60837 33 6.8565 31.5429C5.10464 30.0858 4.72931 27.6433 3.97865 22.7586L3.52708 19.8202Z" fill="#00939E"/>
</g>
<path d="M18 15V24M13.5 19.5H22.5" stroke="white" stroke-width="2.5" stroke-linecap="round"/>
</g>
<defs>
<filter id="filter0_d_627_1153" x="-21" y="-17" width="78" height="78" filterUnits="userSpaceOnUse" color-interpolation-filters="sRGB">
<feFlood flood-opacity="0" result="BackgroundImageFix"/>
<feColorMatrix in="SourceAlpha" type="matrix" values="0 0 0 0 0 0 0 0 0 0 0 0 0 0 0 0 0 0 127 0" result="hardAlpha"/>
<feOffset dy="4"/>
<feGaussianBlur stdDeviation="12"/>
<feComposite in2="hardAlpha" operator="out"/>
<feColorMatrix type="matrix" values="0 0 0 0 0 0 0 0 0 0 0 0 0 0 0 0 0 0 0.08 0"/>
<feBlend mode="normal" in2="BackgroundImageFix" result="effect1_dropShadow_627_1153"/>
<feBlend mode="normal" in="SourceGraphic" in2="effect1_dropShadow_627_1153" result="shape"/>
</filter>
<clipPath id="clip0_627_1153">
<rect width="36" height="36" fill="white"/>
</clipPath>
</defs>
</svg>
